# Blender v2.76 (sub 0) OBJ File: 'med.blend'
# www.blender.org
mtllib med.mtl
o Sphere
v 1.650586 1.012794 3.096880
v 1.871397 1.705222 2.619550
v 2.445099 2.148197 1.126419
v 2.646556 2.303749 -0.634848
v 2.445099 2.148197 -2.396116
v 1.871397 1.705222 -3.889245
v 2.201229 1.563890 -5.016220
v 2.334281 0.000000 3.096880
v 2.646556 0.260250 2.619550
v 3.457892 0.260250 1.126419
v 3.742796 0.260250 -0.634848
v 3.457892 0.260250 -2.396115
v 2.646556 0.260250 -3.889245
v 3.113008 -0.135755 -5.016220
v 1.012793 -0.394681 3.457894
v 1.871397 -0.302848 2.619550
v 2.445099 -0.475474 1.126420
v 2.646556 -0.536092 -0.634848
v 2.445099 -0.475474 -2.396115
v 1.871397 -0.302849 -3.889245
v 2.201229 -0.798099 -5.016220
v 7.643795 2.229588 1.646703
v 2.474095 2.229588 1.074621
v 9.857951 2.229588 -2.051632
v 1.026472 0.228195 4.789953
v 1.751176 0.873693 4.259243
v 2.193613 0.228195 4.502802
v 1.420373 0.476738 6.175464
v 4.167510 2.229588 -3.376126
v 1.774177 1.376449 -5.016220
v 2.509066 0.006545 -5.016220
v 1.774177 -0.527300 -5.016220
v 0.816305 0.956020 -3.838596
v 1.154430 0.325723 -3.838596
v 0.816305 0.080099 -3.838596
v -1.650586 1.012794 3.096880
v -1.871397 1.705222 2.619550
v -2.445099 2.148197 1.126419
v -2.646556 2.303749 -0.634848
v -2.445099 2.148197 -2.396116
v -1.871397 1.705222 -3.889245
v -2.201229 1.563890 -5.016220
v -2.334281 0.000000 3.096880
v -2.646556 0.260250 2.619550
v -3.457892 0.260250 1.126419
v -3.742796 0.260250 -0.634848
v -3.457892 0.260250 -2.396115
v -2.646556 0.260250 -3.889245
v -3.113008 -0.135755 -5.016220
v -1.012793 -0.394681 3.457894
v -1.871397 -0.302848 2.619550
v -2.445099 -0.475474 1.126420
v -2.646556 -0.536092 -0.634848
v -2.445099 -0.475474 -2.396115
v -1.871397 -0.302849 -3.889245
v -2.201229 -0.798099 -5.016220
v -7.643795 2.229588 1.646703
v -2.474095 2.229588 1.074621
v -9.857951 2.229588 -2.051632
v -1.026472 0.228195 4.789953
v -1.751176 0.873693 4.259243
v -2.193613 0.228195 4.502802
v -1.420373 0.476738 6.175464
v -4.167510 2.229588 -3.376126
v -1.774177 1.376449 -5.016220
v -2.509066 0.006545 -5.016220
v -1.774177 -0.527300 -5.016220
v -0.816305 0.956020 -3.838596
v -1.154430 0.325723 -3.838596
v -0.816305 0.080099 -3.838596
v 0.000000 1.432306 3.457894
v 0.000000 2.303749 2.619549
v 0.000000 2.930210 1.126419
v 0.000000 3.150194 -0.634848
v 0.000000 2.930210 -2.396116
v 0.000000 2.303748 -3.889245
v 0.000000 2.267907 -5.016220
v 0.000000 0.000000 3.671183
v 0.000000 -0.558163 3.457894
v 0.000000 -0.536091 2.619550
v 0.000000 -0.780221 1.126419
v 0.000000 -0.865947 -0.634847
v 0.000000 -0.780221 -2.396115
v 0.000000 -0.536092 -3.889244
v 0.000000 -1.072451 -5.016220
v 0.000000 1.943883 -5.016220
v 0.000000 -0.748426 -5.016220
v 0.000000 1.217098 -3.838596
v 0.000000 -0.021642 -3.838596
v 0.000000 0.597728 -3.838596
vt 0.722371 0.344103
vt 0.642994 0.338463
vt 0.651228 0.190260
vt 0.739344 0.176671
vt 0.529430 0.349444
vt 0.399814 0.349444
vt 0.415088 0.157245
vt 0.532271 0.171317
vt 0.271612 0.328981
vt 0.159425 0.291763
vt 0.192387 0.161468
vt 0.299892 0.155656
vt 0.080663 0.249905
vt 0.137475 0.138967
vt 0.422841 0.000218
vt 0.551718 0.020670
vt 0.174995 0.048004
vt 0.293740 0.008946
vt 0.669399 0.067597
vt 0.128856 0.049413
vt 0.757762 0.037469
vt 0.251998 0.453402
vt 0.290155 0.568043
vt 0.201880 0.560850
vt 0.181598 0.444593
vt 0.294749 0.694303
vt 0.262781 0.816430
vt 0.175956 0.803247
vt 0.201058 0.683997
vt 0.197913 0.918767
vt 0.162607 0.946769
vt 0.067951 0.953031
vt 0.130757 0.905153
vt 0.277079 0.364324
vt 0.196810 0.351253
vt 0.005350 0.789981
vt 0.015592 0.665295
vt 0.000218 0.957421
vt 0.000218 0.896069
vt 0.041599 0.436592
vt 0.039461 0.349879
vt 0.030012 0.541010
vt 0.000218 0.184504
vt 0.010934 0.999782
vt 0.295184 0.349879
vt 0.659016 0.393186
vt 0.751870 0.682291
vt 0.340294 0.682291
vt 0.821524 0.450953
vt 0.877319 0.511470
vt 0.752305 0.543540
vt 0.891977 0.562158
vt 0.836834 0.615590
vt 0.972025 0.579922
vt 0.900365 0.704285
vt 0.972025 0.485594
vt 0.865459 0.349879
vt 0.362367 0.747331
vt 0.517432 0.728004
vt 0.517432 0.750830
vt 0.392451 0.766407
vt 0.298137 0.793989
vt 0.340682 0.804013
vt 0.517432 0.963314
vt 0.362367 0.913720
vt 0.392450 0.900516
vt 0.517432 0.940488
vt 0.758197 0.123017
vt 0.797185 0.072280
vt 0.903419 0.116779
vt 0.885480 0.140123
vt 0.900373 0.309120
vt 0.800479 0.224036
vt 0.904935 0.186602
vt 0.950896 0.225750
vt 0.900480 0.000218
vt 0.950945 0.083623
vt 0.568263 0.828373
vt 0.544443 0.783972
vt 0.625767 0.803133
vt 0.568263 0.766669
vt 0.625767 0.846765
vt 0.625767 0.759502
vn 0.304500 0.952000 -0.030300
vn 0.302500 0.945800 -0.118100
vn 0.282900 0.884500 0.371100
vn 0.282900 0.884500 -0.371100
vn 0.302500 0.945800 0.118100
vn 0.251700 0.602000 0.757800
vn 0.872400 0.468000 -0.141100
vn 0.794800 0.426400 0.431900
vn 0.794800 0.426400 -0.431900
vn 0.872400 0.468000 0.141100
vn 0.611200 0.362800 0.703400
vn 0.864300 0.463700 0.194800
vn 0.559900 -0.770700 -0.304200
vn 0.585100 -0.805400 0.094600
vn 0.431800 -0.890100 0.146000
vn 0.519800 -0.715600 0.466600
vn 0.585100 -0.805400 -0.094600
vn 0.559900 -0.770700 0.304200
vn 0.123500 -0.991200 0.048200
vn 0.136300 -0.990700 0.002500
vn 0.111800 -0.897300 0.427000
vn 0.123500 -0.991200 -0.048200
vn 0.122100 -0.979500 0.160200
vn 0.122100 -0.979500 -0.160200
vn 0.246000 0.142800 0.958700
vn 0.238000 0.088000 0.967300
vn 0.057500 -0.356400 0.932600
vn 0.000000 1.000000 -0.000000
vn 0.040600 -0.985400 0.165200
vn 0.749700 0.610400 0.255900
vn -0.645100 0.762600 0.046600
vn -0.492100 0.844800 0.210100
vn 0.827700 0.561100 -0.006500
vn 0.040400 -0.985600 0.164000
vn 0.000000 0.000000 -1.000000
vn -0.437900 0.602800 -0.667000
vn -0.262600 -0.821100 -0.506800
vn -0.105500 0.846200 -0.522300
vn -0.659700 -0.353900 -0.663000
vn -0.304500 0.952000 -0.030300
vn -0.302500 0.945800 -0.118100
vn -0.282900 0.884500 0.371100
vn -0.282900 0.884500 -0.371100
vn -0.302500 0.945800 0.118100
vn -0.251700 0.602000 0.757800
vn -0.872400 0.468000 -0.141100
vn -0.794800 0.426400 0.431900
vn -0.794800 0.426400 -0.431900
vn -0.872400 0.468000 0.141100
vn -0.611200 0.362800 0.703400
vn -0.864300 0.463700 0.194800
vn -0.559900 -0.770700 -0.304200
vn -0.585100 -0.805400 0.094600
vn -0.431800 -0.890100 0.146000
vn -0.519800 -0.715600 0.466600
vn -0.585100 -0.805400 -0.094600
vn -0.559900 -0.770700 0.304200
vn -0.123500 -0.991200 0.048200
vn -0.136300 -0.990700 0.002500
vn -0.111800 -0.897300 0.427000
vn -0.123500 -0.991200 -0.048200
vn -0.122100 -0.979500 0.160200
vn -0.122100 -0.979500 -0.160200
vn -0.246000 0.142800 0.958700
vn -0.238000 0.088000 0.967300
vn -0.057500 -0.356400 0.932600
vn -0.040600 -0.985400 0.165200
vn -0.749700 0.610400 0.255900
vn 0.645100 0.762600 0.046600
vn 0.492100 0.844800 0.210100
vn -0.827700 0.561100 -0.006500
vn -0.040400 -0.985600 0.164000
vn 0.437900 0.602800 -0.667000
vn 0.262600 -0.821100 -0.506800
vn 0.105500 0.846200 -0.522300
vn 0.659700 -0.353900 -0.663000
usemtl None
s off
f 77/1/1 76/2/1 6/3/1 7/4/1
f 75/5/2 74/6/2 4/7/2 5/8/2
f 73/9/3 72/10/3 2/11/3 3/12/3
f 76/2/4 75/5/4 5/8/4 6/3/4
f 74/6/5 73/9/5 3/12/5 4/7/5
f 72/10/6 71/13/6 1/14/6 2/11/6
f 5/8/7 4/7/7 11/15/7 12/16/7
f 3/12/8 2/11/8 9/17/8 10/18/8
f 6/3/9 5/8/9 12/16/9 13/19/9
f 4/7/10 3/12/10 10/18/10 11/15/10
f 2/11/11 1/14/11 8/20/11 9/17/11
f 7/4/12 6/3/12 13/19/12 14/21/12
f 13/22/13 12/23/13 19/24/13 20/25/13
f 11/26/14 10/27/14 17/28/14 18/29/14
f 9/30/15 8/31/15 15/32/15 16/33/15
f 14/34/16 13/22/16 20/25/16 21/35/16
f 12/23/17 11/26/17 18/29/17 19/24/17
f 10/27/18 9/30/18 16/33/18 17/28/18
f 18/29/19 17/28/19 81/36/19 82/37/19
f 16/33/20 15/32/20 79/38/20 80/39/20
f 21/35/21 20/25/21 84/40/21 85/41/21
f 19/24/22 18/29/22 82/37/22 83/42/22
f 17/28/23 16/33/23 80/39/23 81/36/23
f 20/25/24 19/24/24 83/42/24 84/40/24
f 71/13/25 78/43/25 1/14/25
f 8/31/26 78/44/26 15/32/26
f 15/32/27 78/44/27 79/38/27
f 23/45/28 22/46/28 24/47/28 29/48/28
f 25/49/29 27/50/29 28/51/29
f 27/50/30 26/52/30 28/51/30
f 26/52/31 25/53/31 28/51/31
f 1/54/32 78/55/32 25/53/32 26/52/32
f 8/56/33 1/54/33 26/52/33 27/50/33
f 78/57/34 8/56/34 27/50/34 25/49/34
f 21/58/35 85/59/35 87/60/35 32/61/35
f 14/62/35 21/58/35 32/61/35 31/63/35
f 77/64/35 7/65/35 30/66/35 86/67/35
f 7/65/35 14/62/35 31/63/35 30/66/35
f 31/68/36 32/69/36 35/70/36 34/71/36
f 86/72/37 30/73/37 33/74/37 88/75/37
f 32/69/38 87/76/38 89/77/38 35/70/38
f 30/73/39 31/68/39 34/71/39 33/74/39
f 33/78/35 34/79/35 90/80/35
f 34/79/35 35/81/35 90/80/35
f 88/82/35 33/78/35 90/80/35
f 35/81/35 89/83/35 90/80/35
f 77/1/40 42/4/40 41/3/40 76/2/40
f 75/5/41 40/8/41 39/7/41 74/6/41
f 73/9/42 38/12/42 37/11/42 72/10/42
f 76/2/43 41/3/43 40/8/43 75/5/43
f 74/6/44 39/7/44 38/12/44 73/9/44
f 72/10/45 37/11/45 36/14/45 71/13/45
f 40/8/46 47/16/46 46/15/46 39/7/46
f 38/12/47 45/18/47 44/17/47 37/11/47
f 41/3/48 48/19/48 47/16/48 40/8/48
f 39/7/49 46/15/49 45/18/49 38/12/49
f 37/11/50 44/17/50 43/20/50 36/14/50
f 42/4/51 49/21/51 48/19/51 41/3/51
f 48/22/52 55/25/52 54/24/52 47/23/52
f 46/26/53 53/29/53 52/28/53 45/27/53
f 44/30/54 51/33/54 50/32/54 43/31/54
f 49/34/55 56/35/55 55/25/55 48/22/55
f 47/23/56 54/24/56 53/29/56 46/26/56
f 45/27/57 52/28/57 51/33/57 44/30/57
f 53/29/58 82/37/58 81/36/58 52/28/58
f 51/33/59 80/39/59 79/38/59 50/32/59
f 56/35/60 85/41/60 84/40/60 55/25/60
f 54/24/61 83/42/61 82/37/61 53/29/61
f 52/28/62 81/36/62 80/39/62 51/33/62
f 55/25/63 84/40/63 83/42/63 54/24/63
f 71/13/64 36/14/64 78/43/64
f 43/31/65 50/32/65 78/44/65
f 50/32/66 79/38/66 78/44/66
f 58/45/28 64/48/28 59/47/28 57/46/28
f 60/49/67 63/51/67 62/50/67
f 62/50/68 63/51/68 61/52/68
f 61/52/69 63/51/69 60/53/69
f 36/54/70 61/52/70 60/53/70 78/55/70
f 43/56/71 62/50/71 61/52/71 36/54/71
f 78/57/72 60/49/72 62/50/72 43/56/72
f 56/58/35 67/61/35 87/60/35 85/59/35
f 49/62/35 66/63/35 67/61/35 56/58/35
f 77/64/35 86/67/35 65/66/35 42/65/35
f 42/65/35 65/66/35 66/63/35 49/62/35
f 66/68/73 69/71/73 70/70/73 67/69/73
f 86/72/74 88/75/74 68/74/74 65/73/74
f 67/69/75 70/70/75 89/77/75 87/76/75
f 65/73/76 68/74/76 69/71/76 66/68/76
f 68/78/35 90/80/35 69/79/35
f 69/79/35 90/80/35 70/81/35
f 88/82/35 90/80/35 68/78/35
f 70/81/35 90/80/35 89/83/35
