# Blender v2.76 (sub 0) OBJ File: 'small.blend'
# www.blender.org
mtllib small.mtl
o Cylinder
v 1.188248 0.694860 1.419128
v 0.871342 0.417253 0.738350
v 0.869359 1.221360 0.143856
v 5.571013 3.499605 -2.160729
v 4.079518 2.869224 0.332019
v 2.648154 2.797043 -2.106853
v 0.381318 -3.202506 -2.407927
v 0.873175 -2.638006 -1.860584
v 1.065903 -2.047179 -1.434727
v 1.199437 -1.481612 -0.997587
v 1.117633 -0.887023 -0.622450
v 0.872028 -0.270310 -0.266716
v 0.871687 0.170637 0.245174
v 0.379983 -3.047461 -2.812103
v 0.870178 -2.213279 -2.765903
v 1.062339 -1.450181 -2.501446
v 1.195535 -0.719347 -2.143979
v 1.114112 -0.084074 -1.622818
v 0.869398 0.441925 -0.968647
v 0.869246 0.998452 -0.315833
v 1.185541 1.792948 0.607287
v 0.675447 2.202478 1.656767
v 0.676985 1.578452 2.118123
v 1.156660 2.166662 0.385895
v 0.695444 -0.005535 2.608312
v 1.354844 0.301517 2.380464
v 0.570939 0.572407 2.982346
v 1.073431 0.806395 2.808715
v 0.767221 0.175611 3.674460
v -0.000000 1.621447 -0.153380
v -0.000000 -3.844005 -2.855731
v -1.188248 0.694860 1.419128
v 0.000000 0.144789 1.827309
v -0.000000 0.014448 1.037253
v -0.871342 0.417253 0.738350
v -0.869359 1.221360 0.143856
v -0.000000 2.339306 0.201381
v -0.000000 1.410239 -0.595861
v -0.000000 0.796006 -1.318355
v -0.000000 0.314983 -2.120998
v -0.000000 -0.340588 -2.714699
v -0.000000 -1.153578 -3.032349
v -0.000000 -2.002272 -3.216352
v -0.000000 -2.970437 -3.013130
v -5.523737 3.464902 -2.275565
v -3.813425 3.227506 0.143980
v -2.665818 2.533870 -2.346798
v -0.000000 -3.280428 -2.204740
v -0.000000 -2.851524 -1.405620
v -0.000000 -2.347329 -0.898772
v -0.000000 -1.864827 -0.421720
v -0.000000 -1.290617 -0.120020
v -0.000000 -0.628191 0.085785
v -0.000000 -0.244834 0.526973
v -0.381318 -3.202506 -2.407927
v -0.873175 -2.638006 -1.860584
v -1.065903 -2.047179 -1.434727
v -1.199437 -1.481612 -0.997587
v -1.117633 -0.887023 -0.622450
v -0.872028 -0.270310 -0.266716
v -0.871687 0.170637 0.245174
v -0.379983 -3.047461 -2.812103
v -0.870178 -2.213279 -2.765903
v -1.062339 -1.450181 -2.501446
v -1.195535 -0.719347 -2.143979
v -1.114112 -0.084074 -1.622818
v -0.869398 0.441925 -0.968647
v -0.869246 0.998452 -0.315833
v -1.185541 1.792948 0.607287
v -0.675447 2.202478 1.656767
v -0.000000 2.512964 1.426098
v -0.676985 1.578452 2.118123
v -0.000000 1.265855 2.350086
v -0.955505 2.296473 0.072748
v -0.695444 -0.005535 2.608312
v -1.354843 0.301517 2.380464
v -0.570939 0.572407 2.982346
v -1.073431 0.806394 2.808715
v -0.767221 0.175611 3.674460
vt 0.263173 0.737188
vt 0.365278 0.850158
vt 0.210494 0.911533
vt 0.173879 0.816072
vt 0.000175 0.837830
vt 0.089637 0.769900
vt 0.252045 0.581944
vt 0.330433 0.676893
vt 0.163747 0.625763
vt 0.418313 0.765483
vt 0.002577 0.183526
vt 0.075409 0.190968
vt 0.071045 0.323280
vt 0.006554 0.313124
vt 0.167779 0.186577
vt 0.182088 0.321074
vt 0.263291 0.174652
vt 0.283581 0.312023
vt 0.339302 0.160744
vt 0.367134 0.295656
vt 0.413610 0.147714
vt 0.448173 0.269611
vt 0.491811 0.134272
vt 0.524353 0.231406
vt 0.596938 0.122494
vt 0.618390 0.171911
vt 0.063414 0.450851
vt 0.000175 0.441859
vt 0.186438 0.450320
vt 0.302542 0.461739
vt 0.415018 0.442737
vt 0.511161 0.391348
vt 0.596442 0.322939
vt 0.660290 0.207696
vt 0.000175 0.053501
vt 0.074451 0.058448
vt 0.147893 0.051638
vt 0.236081 0.016963
vt 0.321083 0.000175
vt 0.407473 0.004989
vt 0.497717 0.020310
vt 0.601956 0.067773
vt 0.223893 0.462089
vt 0.125303 0.462089
vt 0.705768 0.103580
vt 0.550132 0.758615
vt 0.642378 0.758615
vt 0.643174 0.896207
vt 0.571421 0.888103
vt 0.774289 0.790751
vt 0.901931 0.882352
vt 0.806127 0.956316
vt 0.733033 0.905114
vt 0.418664 0.823004
vt 0.493301 0.923092
vt 0.644808 0.999825
vt 0.778032 0.462089
vt 0.418664 0.462099
vt 0.614926 0.758264
vt 0.974294 0.758255
vn 0.864800 0.409400 -0.290500
vn 0.000000 0.809300 -0.587400
vn 0.000000 0.963700 0.267000
vn 0.532300 0.717400 0.449300
vn 0.000000 0.420800 0.907100
vn 0.497900 0.596600 0.629400
vn 0.816500 -0.574700 0.055700
vn 0.858000 0.250100 -0.448700
vn 0.941600 -0.332500 -0.053700
vn 0.000000 0.698800 -0.715200
vn 0.883300 -0.389300 0.261100
vn 0.846900 0.446100 -0.289500
vn 0.863300 -0.185900 0.469000
vn 0.836000 0.493500 -0.239700
vn 0.845200 -0.106500 0.523600
vn 0.839000 0.480900 -0.254300
vn 0.869100 -0.305600 0.388700
vn 0.860600 0.253100 -0.441800
vn 0.845000 -0.448400 0.291200
vn 0.836400 0.046700 -0.546100
vn 0.784200 -0.582800 0.212700
vn 0.781600 -0.176900 -0.598100
vn 0.722800 -0.672000 0.161000
vn 0.711400 -0.353700 -0.607300
vn 0.000000 0.837700 -0.546000
vn 0.000000 0.818100 -0.575100
vn 0.000000 0.771200 -0.636500
vn 0.000000 0.527200 -0.849700
vn 0.000000 0.289100 -0.957300
vn 0.000000 0.024000 -0.999700
vn 0.000000 -0.196800 -0.980400
vn 0.000000 -0.955600 0.294700
vn 0.000000 -0.831000 0.556300
vn 0.000000 -0.539500 0.842000
vn 0.000000 -0.400900 0.916100
vn 0.000000 -0.588300 0.808600
vn 0.000000 -0.699600 0.714500
vn 0.000000 -0.785900 0.618400
vn 0.000000 -0.832100 0.554500
vn 0.000000 -0.990000 0.141000
vn 0.000000 -0.943400 -0.331600
vn -0.687700 0.296200 0.662800
vn 0.606900 0.599700 0.521600
vn 0.916100 -0.395900 -0.062500
vn -0.221100 -0.969400 0.106700
vn -0.088700 -0.258700 0.961900
vn -0.864800 0.409400 -0.290500
vn -0.532300 0.717400 0.449300
vn -0.497900 0.596600 0.629400
vn -0.816500 -0.574700 0.055700
vn -0.941600 -0.332500 -0.053700
vn -0.858000 0.250100 -0.448700
vn -0.846900 0.446100 -0.289500
vn -0.883300 -0.389300 0.261100
vn -0.836000 0.493500 -0.239700
vn -0.863300 -0.185900 0.469000
vn -0.839000 0.480900 -0.254300
vn -0.845200 -0.106500 0.523600
vn -0.860600 0.253100 -0.441800
vn -0.869100 -0.305600 0.388700
vn -0.836400 0.046700 -0.546100
vn -0.845000 -0.448400 0.291200
vn -0.781600 -0.176900 -0.598100
vn -0.784200 -0.582800 0.212700
vn -0.711400 -0.353700 -0.607300
vn -0.722800 -0.672000 0.161000
vn 0.304600 0.944500 -0.122700
vn -0.606900 0.599700 0.521600
vn 0.687700 0.296200 0.662800
vn 0.221100 -0.969400 0.106700
vn -0.916100 -0.395900 -0.062500
vn 0.088700 -0.258700 0.961900
vn -0.230500 0.967200 0.106700
usemtl None
s 1
f 21/1/1 37/2/2 71/3/3 22/4/4
f 22/4/4 71/3/3 73/5/5 23/6/6
f 2/7/7 3/8/8 21/1/1 1/9/9
f 3/8/8 30/10/10 37/2/2 21/1/1
f 2/11/7 13/12/11 20/13/12 3/14/8
f 13/12/11 12/15/13 19/16/14 20/13/12
f 12/15/13 11/17/15 18/18/16 19/16/14
f 11/17/15 10/19/17 17/20/18 18/18/16
f 10/19/17 9/21/19 16/22/20 17/20/18
f 9/21/19 8/23/21 15/24/22 16/22/20
f 8/23/21 7/25/23 14/26/24 15/24/22
f 3/14/8 20/13/12 38/27/25 30/28/10
f 20/13/12 19/16/14 39/29/26 38/27/25
f 19/16/14 18/18/16 40/30/27 39/29/26
f 18/18/16 17/20/18 41/31/28 40/30/27
f 17/20/18 16/22/20 42/32/29 41/31/28
f 16/22/20 15/24/22 43/33/30 42/32/29
f 15/24/22 14/26/24 44/34/31 43/33/30
f 34/35/32 54/36/33 13/12/11 2/11/7
f 54/36/33 53/37/34 12/15/13 13/12/11
f 53/37/34 52/38/35 11/17/15 12/15/13
f 52/38/35 51/39/36 10/19/17 11/17/15
f 51/39/36 50/40/37 9/21/19 10/19/17
f 50/40/37 49/41/38 8/23/21 9/21/19
f 49/41/38 48/42/39 7/25/23 8/23/21
f 34/43/32 2/7/7 1/9/9 33/44/40
f 48/42/39 31/45/41 7/25/23
f 14/26/24 31/45/41 44/34/31
f 7/25/23 31/45/41 14/26/24
f 1/9/9 21/1/1 22/4/4 23/6/6
f 23/46/6 73/47/5 27/48/42 28/49/43
f 33/50/40 1/51/9 26/52/44 25/53/45
f 1/54/9 23/46/6 28/49/43 26/55/44
f 73/47/5 33/50/40 25/53/45 27/48/42
f 26/55/44 28/49/43 29/56/46
f 28/49/43 27/48/42 29/56/46
f 27/48/42 25/53/45 29/56/46
f 25/53/45 26/52/44 29/56/46
f 69/1/47 70/4/48 71/3/3 37/2/2
f 70/4/48 72/6/49 73/5/5 71/3/3
f 35/7/50 32/9/51 69/1/47 36/8/52
f 36/8/52 69/1/47 37/2/2 30/10/10
f 35/11/50 36/14/52 68/13/53 61/12/54
f 61/12/54 68/13/53 67/16/55 60/15/56
f 60/15/56 67/16/55 66/18/57 59/17/58
f 59/17/58 66/18/57 65/20/59 58/19/60
f 58/19/60 65/20/59 64/22/61 57/21/62
f 57/21/62 64/22/61 63/24/63 56/23/64
f 56/23/64 63/24/63 62/26/65 55/25/66
f 36/14/52 30/28/10 38/27/25 68/13/53
f 68/13/53 38/27/25 39/29/26 67/16/55
f 67/16/55 39/29/26 40/30/27 66/18/57
f 66/18/57 40/30/27 41/31/28 65/20/59
f 65/20/59 41/31/28 42/32/29 64/22/61
f 64/22/61 42/32/29 43/33/30 63/24/63
f 63/24/63 43/33/30 44/34/31 62/26/65
f 34/35/32 35/11/50 61/12/54 54/36/33
f 54/36/33 61/12/54 60/15/56 53/37/34
f 53/37/34 60/15/56 59/17/58 52/38/35
f 52/38/35 59/17/58 58/19/60 51/39/36
f 51/39/36 58/19/60 57/21/62 50/40/37
f 50/40/37 57/21/62 56/23/64 49/41/38
f 49/41/38 56/23/64 55/25/66 48/42/39
f 46/57/67 74/58/67 47/59/67 45/60/67
f 34/43/32 33/44/40 32/9/51 35/7/50
f 48/42/39 55/25/66 31/45/41
f 62/26/65 44/34/31 31/45/41
f 55/25/66 62/26/65 31/45/41
f 32/9/51 72/6/49 70/4/48 69/1/47
f 72/46/49 78/49/68 77/48/69 73/47/5
f 33/50/40 75/53/70 76/52/71 32/51/51
f 32/54/51 76/55/71 78/49/68 72/46/49
f 73/47/5 77/48/69 75/53/70 33/50/40
f 76/55/71 79/56/72 78/49/68
f 78/49/68 79/56/72 77/48/69
f 77/48/69 79/56/72 75/53/70
f 75/53/70 79/56/72 76/52/71
f 5/57/73 4/60/73 6/59/73 24/58/73
o BezierCurve
v 0.004495 3.065972 1.564346
v 0.003929 3.147076 1.159714
v 0.003379 3.050353 0.791580
v 0.002830 2.795173 0.463131
v 0.002267 2.400904 0.177552
v 0.001675 1.886918 -0.061972
v 0.001040 1.272582 -0.252255
v 0.000348 0.577268 -0.390112
v -0.000417 -0.179656 -0.472357
v -0.001270 -0.978820 -0.495804
v -0.002223 -1.800853 -0.457268
v -0.003294 -2.626388 -0.353563
v -0.004495 -3.436055 -0.181505
l 80 81
l 81 82
l 82 83
l 83 84
l 84 85
l 85 86
l 86 87
l 87 88
l 88 89
l 89 90
l 90 91
l 91 92
