# Blender v2.76 (sub 0) OBJ File: ''
# www.blender.org
mtllib missle.mtl
o Cube
v 0.716993 -0.000000 1.359843
v 0.358497 -0.620934 1.359843
v 1.000000 0.000000 -1.000000
v 1.000000 -0.000000 1.000000
v 0.500000 -0.866025 -1.000000
v 0.500000 -0.866026 1.000000
v -0.500000 -0.866026 -1.000000
v -0.500000 -0.866026 1.000000
v -1.000000 0.000000 -1.000000
v -1.000000 -0.000000 1.000000
v -0.500000 0.866025 -1.000000
v -0.500000 0.866025 1.000000
v 0.500000 0.866025 -1.000000
v 0.500000 0.866025 1.000000
v -0.358496 -0.620934 1.359843
v -0.716992 -0.000000 1.359843
v -0.358496 0.620934 1.359843
v 0.358497 0.620934 1.359843
v 1.000000 0.000000 -2.113668
v 0.500000 -0.866025 -2.113668
v -0.500000 -0.866025 -2.113667
v -1.000000 0.000000 -2.113667
v -0.500000 0.866025 -2.113667
v 0.500000 0.866026 -2.113667
v 1.183013 -0.683013 -1.811518
v 1.183012 -0.683013 -2.925186
v -0.000000 1.366026 -1.811518
v -0.000000 1.366026 -2.925185
v -1.183013 -0.683013 -1.811518
v -1.183013 -0.683013 -2.925185
v 0.800000 0.000000 -2.113668
v 0.400000 -0.692820 -2.113668
v -0.400000 -0.692820 -2.113668
v -0.800000 0.000000 -2.113667
v -0.400000 0.692820 -2.113667
v 0.400000 0.692821 -2.113667
v 0.800000 0.000000 -1.638499
v 0.400000 -0.692820 -1.638499
v -0.400000 -0.692820 -1.638499
v -0.800000 0.000000 -1.638499
v -0.400000 0.692820 -1.638499
v 0.400000 0.692820 -1.638499
vt 0.775021 0.442222
vt 0.775021 0.311398
vt 0.920716 0.311398
vt 0.920716 0.442222
vt 0.417578 0.310626
vt 0.286008 0.231073
vt 0.343221 0.195195
vt 0.414387 0.243295
vt 0.955770 0.967062
vt 0.694122 0.967062
vt 0.694122 0.836238
vt 0.955770 0.836238
vt 0.547656 0.836238
vt 0.547656 0.705414
vt 0.693350 0.705414
vt 0.693350 0.836238
vt 0.286008 0.077535
vt 0.346299 0.107975
vt 0.547656 0.704642
vt 0.286008 0.704642
vt 0.286008 0.573818
vt 0.547656 0.573818
vt 0.512602 0.376810
vt 0.512602 0.507634
vt 0.489942 0.494551
vt 0.489942 0.389892
vt 0.418532 0.000386
vt 0.550102 0.079939
vt 0.492888 0.115817
vt 0.421722 0.067717
vt 0.824946 0.573818
vt 0.824946 0.835466
vt 0.694122 0.835466
vt 0.694122 0.573818
vt 0.988184 0.620718
vt 0.988184 0.714517
vt 0.906951 0.761417
vt 0.825718 0.714517
vt 0.825718 0.620717
vt 0.906951 0.573818
vt 0.513373 0.442222
vt 0.513373 0.311398
vt 0.550101 0.233477
vt 0.489811 0.203037
vt 0.286008 0.836238
vt 0.286008 0.705414
vt 0.803506 0.262034
vt 0.803506 0.000386
vt 0.934330 0.000386
vt 0.934330 0.262034
vt 0.693350 0.573818
vt 0.693350 0.704642
vt 0.146080 0.685971
vt 0.000386 0.685971
vt 0.106552 0.593464
vt 0.252246 0.593464
vt 0.696568 0.185399
vt 0.550874 0.185399
vt 0.657040 0.092893
vt 0.802734 0.092892
vt 0.146080 0.500186
vt 0.000386 0.500186
vt 0.106552 0.407679
vt 0.252246 0.407679
vt 0.140686 0.314401
vt 0.000386 0.240023
vt 0.069334 0.192033
vt 0.137237 0.231644
vt 0.286008 0.376810
vt 0.399305 0.311398
vt 0.399305 0.337562
vt 0.308667 0.389892
vt 0.399305 0.573046
vt 0.286008 0.507634
vt 0.308667 0.494551
vt 0.399305 0.546881
vt 0.209704 0.777381
vt 0.157375 0.868018
vt 0.052716 0.868018
vt 0.000386 0.777381
vt 0.052716 0.686743
vt 0.157375 0.686743
vt 0.285236 0.081127
vt 0.285236 0.242706
vt 0.210867 0.203925
vt 0.215647 0.128192
vt 0.145310 0.000386
vt 0.149670 0.084242
vt 0.002979 0.077587
vt 0.077277 0.116538
vt 0.000386 0.315173
vt 0.146080 0.315173
vt 0.402632 0.837010
vt 0.518484 0.897781
vt 0.402632 0.977824
vt 0.611645 0.302024
vt 0.550874 0.186171
vt 0.691688 0.186171
vt 0.593416 0.442994
vt 0.654188 0.558846
vt 0.513373 0.558846
vt 0.000386 0.500958
vt 0.146080 0.500958
vt 0.635109 0.917053
vt 0.519256 0.977824
vt 0.519256 0.837010
vt 0.550874 0.000386
vt 0.696568 0.000386
vt 0.125085 0.868790
vt 0.125085 0.999614
vt 0.000386 0.934202
vt 0.286008 0.897781
vt 0.401860 0.837010
vt 0.401860 0.977824
vn -0.866000 0.500000 0.000000
vn -0.715800 0.413300 0.562900
vn 0.866000 -0.500000 -0.000000
vn 0.866000 0.500000 -0.000000
vn -0.715800 -0.413300 0.562900
vn 0.000000 -1.000000 -0.000000
vn 0.000000 0.000000 -1.000000
vn 0.715800 -0.413300 0.562900
vn -0.866000 -0.500000 0.000000
vn 0.000000 -0.826500 0.562900
vn 0.000000 0.000000 1.000000
vn 0.715800 0.413300 0.562900
vn -0.000000 1.000000 0.000000
vn 0.000000 0.826500 0.562900
vn 0.965900 0.258800 -0.000000
vn -0.707100 0.707100 0.000000
vn -0.258800 -0.965900 -0.000000
vn -0.965900 0.258800 0.000000
vn 0.000000 0.851400 0.524600
vn 0.737300 -0.425700 0.524600
vn -0.737300 0.425700 -0.524600
vn 0.258800 -0.965900 -0.000000
vn 0.000000 -0.851400 -0.524600
vn 0.707100 0.707100 0.000000
vn -0.737300 -0.425700 0.524600
vn 0.737300 0.425700 -0.524600
usemtl Material
s off
f 9/1/1 11/2/1 23/3/1 22/4/1
f 12/5/2 10/6/2 16/7/2 17/8/2
f 3/9/3 4/10/3 6/11/3 5/12/3
f 13/13/4 3/14/4 19/15/4 24/16/4
f 10/6/5 8/17/5 15/18/5 16/7/5
f 5/19/6 6/20/6 8/21/6 7/22/6
f 24/23/7 19/24/7 31/25/7 36/26/7
f 6/27/8 4/28/8 1/29/8 2/30/8
f 7/31/9 8/32/9 10/33/9 9/34/9
f 8/17/10 6/27/10 2/30/10 15/18/10
f 2/35/11 1/36/11 18/37/11 17/38/11 16/39/11 15/40/11
f 9/1/1 10/41/1 12/42/1 11/2/1
f 4/28/12 14/43/12 18/44/12 1/29/12
f 13/13/4 14/45/4 4/46/4 3/14/4
f 11/47/13 12/48/13 14/49/13 13/50/13
f 14/43/14 12/5/14 17/8/14 18/44/14
f 5/19/6 7/22/6 21/51/6 20/52/6
f 19/53/15 3/54/15 25/55/15 26/56/15
f 23/57/16 11/58/16 27/59/16 28/60/16
f 21/61/17 7/62/17 29/63/17 30/64/17
f 33/65/4 34/66/4 40/67/4 39/68/4
f 22/69/7 23/70/7 35/71/7 34/72/7
f 20/73/7 21/74/7 33/75/7 32/76/7
f 23/70/7 24/23/7 36/26/7 35/71/7
f 21/74/7 22/69/7 34/72/7 33/75/7
f 19/24/7 20/73/7 32/76/7 31/25/7
f 37/77/7 38/78/7 39/79/7 40/80/7 41/81/7 42/82/7
f 31/83/1 32/84/1 38/85/1 37/86/1
f 36/87/9 31/83/9 37/86/9 42/88/9
f 34/66/3 35/89/3 41/90/3 40/67/3
f 32/84/13 33/65/13 39/68/13 38/85/13
f 35/89/6 36/87/6 42/88/6 41/90/6
f 9/91/18 22/92/18 30/64/18 29/63/18
f 11/93/19 13/94/19 27/95/19
f 3/96/20 5/97/20 25/98/20
f 20/99/21 19/100/21 26/101/21
f 5/102/22 20/103/22 26/56/22 25/55/22
f 24/104/23 23/105/23 28/106/23
f 13/107/24 24/108/24 28/60/24 27/59/24
f 7/109/25 9/110/25 29/111/25
f 22/112/26 21/113/26 30/114/26
